REM MD5 2e02de7b8eb09081c2aff5adcc7b963f
FILE "Buster Bros. Collection (USA).bin" BINARY
  TRACK 01 MODE2/2352
    INDEX 01 00:00:00
  TRACK 02 AUDIO
    INDEX 00 01:30:29
    INDEX 01 01:32:29
  TRACK 03 AUDIO
    INDEX 00 02:08:37
    INDEX 01 02:10:37
  TRACK 04 AUDIO
    INDEX 00 02:38:64
    INDEX 01 02:40:64
  TRACK 05 AUDIO
    INDEX 00 03:10:65
    INDEX 01 03:12:65
  TRACK 06 AUDIO
    INDEX 00 03:21:24
    INDEX 01 03:23:24
  TRACK 07 AUDIO
    INDEX 00 04:16:21
    INDEX 01 04:18:21
  TRACK 08 AUDIO
    INDEX 00 04:23:63
    INDEX 01 04:25:63
  TRACK 09 AUDIO
    INDEX 00 05:21:57
    INDEX 01 05:23:57
  TRACK 10 AUDIO
    INDEX 00 06:16:56
    INDEX 01 06:18:56
  TRACK 11 AUDIO
    INDEX 00 07:08:57
    INDEX 01 07:10:57
  TRACK 12 AUDIO
    INDEX 00 08:00:58
    INDEX 01 08:02:58
  TRACK 13 AUDIO
    INDEX 00 08:52:58
    INDEX 01 08:54:58
  TRACK 14 AUDIO
    INDEX 00 09:44:59
    INDEX 01 09:46:59
  TRACK 15 AUDIO
    INDEX 00 10:36:59
    INDEX 01 10:38:59
  TRACK 16 AUDIO
    INDEX 00 11:28:60
    INDEX 01 11:30:60
  TRACK 17 AUDIO
    INDEX 00 12:20:61
    INDEX 01 12:22:61
  TRACK 18 AUDIO
    INDEX 00 13:12:61
    INDEX 01 13:14:61
  TRACK 19 AUDIO
    INDEX 00 14:04:62
    INDEX 01 14:06:62
  TRACK 20 AUDIO
    INDEX 00 14:56:62
    INDEX 01 14:58:62
  TRACK 21 AUDIO
    INDEX 00 15:48:64
    INDEX 01 15:50:64
  TRACK 22 AUDIO
    INDEX 00 16:40:64
    INDEX 01 16:42:64
  TRACK 23 AUDIO
    INDEX 00 17:32:65
    INDEX 01 17:34:65
  TRACK 24 AUDIO
    INDEX 00 18:24:64
    INDEX 01 18:26:64
  TRACK 25 AUDIO
    INDEX 00 19:15:62
    INDEX 01 19:17:62
  TRACK 26 AUDIO
    INDEX 00 20:07:64
    INDEX 01 20:09:64
  TRACK 27 AUDIO
    INDEX 00 20:59:66
    INDEX 01 21:01:66
  TRACK 28 AUDIO
    INDEX 00 21:51:67
    INDEX 01 21:53:67
  TRACK 29 AUDIO
    INDEX 00 22:43:69
    INDEX 01 22:45:69
  TRACK 30 AUDIO
    INDEX 00 23:35:69
    INDEX 01 23:37:69
  TRACK 31 AUDIO
    INDEX 00 24:27:69
    INDEX 01 24:29:69
  TRACK 32 AUDIO
    INDEX 00 25:19:69
    INDEX 01 25:21:69
  TRACK 33 AUDIO
    INDEX 00 26:11:70
    INDEX 01 26:13:70
  TRACK 34 AUDIO
    INDEX 00 27:04:00
    INDEX 01 27:06:00
  TRACK 35 AUDIO
    INDEX 00 27:39:62
    INDEX 01 27:41:62
  TRACK 36 AUDIO
    INDEX 00 27:58:08
    INDEX 01 28:00:08
  TRACK 37 AUDIO
    INDEX 00 28:05:61
    INDEX 01 28:07:61
  TRACK 38 AUDIO
    INDEX 00 28:40:71
    INDEX 01 28:42:71
  TRACK 39 AUDIO
    INDEX 00 29:12:71
    INDEX 01 29:14:71
  TRACK 40 AUDIO
    INDEX 00 29:19:72
    INDEX 01 29:21:72
  TRACK 41 AUDIO
    INDEX 00 29:28:31
    INDEX 01 29:30:31
  TRACK 42 AUDIO
    INDEX 00 30:25:60
    INDEX 01 30:27:60
  TRACK 43 AUDIO
    INDEX 00 32:35:06
    INDEX 01 32:37:06
  TRACK 44 AUDIO
    INDEX 00 33:29:66
    INDEX 01 33:31:66
  TRACK 45 AUDIO
    INDEX 00 33:36:67
    INDEX 01 33:38:67
  TRACK 46 AUDIO
    INDEX 00 33:50:37
    INDEX 01 33:52:37
  TRACK 47 AUDIO
    INDEX 00 34:22:37
    INDEX 01 34:24:37
  TRACK 48 AUDIO
    INDEX 00 35:34:38
    INDEX 01 35:36:38
  TRACK 49 AUDIO
    INDEX 00 36:36:39
    INDEX 01 36:38:39
  TRACK 50 AUDIO
    INDEX 00 37:28:40
    INDEX 01 37:30:40
  TRACK 51 AUDIO
    INDEX 00 37:52:22
    INDEX 01 37:54:22
  TRACK 52 AUDIO
    INDEX 00 38:44:22
    INDEX 01 38:46:22
  TRACK 53 AUDIO
    INDEX 00 39:16:22
    INDEX 01 39:18:22
  TRACK 54 AUDIO
    INDEX 00 39:48:22
    INDEX 01 39:50:22
  TRACK 55 AUDIO
    INDEX 00 41:00:62
    INDEX 01 41:02:62
  TRACK 56 AUDIO
    INDEX 00 41:07:63
    INDEX 01 41:09:63
  TRACK 57 AUDIO
    INDEX 00 41:59:63
    INDEX 01 42:01:63
  TRACK 58 AUDIO
    INDEX 00 42:51:64
    INDEX 01 42:53:64
  TRACK 59 AUDIO
    INDEX 00 43:43:65
    INDEX 01 43:45:65
  TRACK 60 AUDIO
    INDEX 00 44:35:66
    INDEX 01 44:37:66
  TRACK 61 AUDIO
    INDEX 00 45:17:66
    INDEX 01 45:19:66
REM LEADOUT 48:49:66
